<svg width="40" height="40" viewBox="0 0 40 40" fill="none" xmlns="http://www.w3.org/2000/svg">
  <g opacity="0.9">
    <!-- Professional Person -->
    <circle cx="20" cy="12" r="4" fill="#1B1D1E" stroke="#1B1D1E" stroke-width="1"/>
    <path d="M12 32C12 26 15.5 22 20 22C24.5 22 28 26 28 32" stroke="#1B1D1E" stroke-width="2" fill="none"/>
    
    <!-- Nigerian Flag Colors (Green-White-Green) -->
    <rect x="14" y="16" width="2" height="4" fill="#008751"/>
    <rect x="16" y="16" width="2" height="4" fill="white" stroke="#1B1D1E" stroke-width="0.5"/>
    <rect x="18" y="16" width="2" height="4" fill="#008751"/>
    
    <!-- Calculator/Finance Symbol -->
    <rect x="24" y="8" width="8" height="10" fill="none" stroke="#1B1D1E" stroke-width="1.5" rx="1"/>
    <line x1="26" y1="11" x2="30" y2="11" stroke="#1B1D1E" stroke-width="1"/>
    <line x1="26" y1="13" x2="30" y2="13" stroke="#1B1D1E" stroke-width="1"/>
    <line x1="26" y1="15" x2="30" y2="15" stroke="#1B1D1E" stroke-width="1"/>
    
    <!-- Excellence Star -->
    <path d="M8 8L9 11L12 11L9.5 13L10.5 16L8 14L5.5 16L6.5 13L4 11L7 11Z" fill="#FBB437"/>
  </g>
</svg>