<svg width="40" height="40" viewBox="0 0 40 40" fill="none" xmlns="http://www.w3.org/2000/svg">
  <g opacity="0.9">
    <!-- Growth Arrow -->
    <path d="M8 32L16 24L24 28L32 16" stroke="#1B1D1E" stroke-width="2.5" fill="none"/>
    <path d="M28 16L32 16L32 20" stroke="#1B1D1E" stroke-width="2" fill="none"/>
    
    <!-- Building Blocks/Scalability -->
    <rect x="6" y="28" width="4" height="6" fill="#1B1D1E" opacity="0.7"/>
    <rect x="12" y="24" width="4" height="10" fill="#1B1D1E" opacity="0.8"/>
    <rect x="18" y="20" width="4" height="14" fill="#1B1D1E" opacity="0.9"/>
    <rect x="24" y="16" width="4" height="18" fill="#FBB437"/>
    
    <!-- Network/Connection Nodes -->
    <circle cx="8" cy="32" r="2" fill="#1B1D1E"/>
    <circle cx="16" cy="24" r="2" fill="#1B1D1E"/>
    <circle cx="24" cy="28" r="2" fill="#1B1D1E"/>
    <circle cx="32" cy="16" r="2" fill="#FBB437"/>
    
    <!-- Scale Symbol -->
    <path d="M4 8L8 4L12 8" stroke="#1B1D1E" stroke-width="1.5" fill="none"/>
    <line x1="8" y1="4" x2="8" y2="12" stroke="#1B1D1E" stroke-width="1.5"/>
    
    <!-- Infinity/Endless Growth -->
    <path d="M30 6C28 4 26 4 24 6C22 8 22 10 24 12C26 14 28 14 30 12C32 10 34 10 36 12C38 14 38 16 36 18C34 20 32 20 30 18" stroke="#FBB437" stroke-width="1.5" fill="none"/>
  </g>
</svg>