<svg width="40" height="40" viewBox="0 0 40 40" fill="none" xmlns="http://www.w3.org/2000/svg">
  <g opacity="0.9">
    <!-- Computer/Laptop -->
    <rect x="8" y="12" width="24" height="16" fill="none" stroke="#1B1D1E" stroke-width="2" rx="2"/>
    <rect x="10" y="14" width="20" height="10" fill="#1B1D1E" opacity="0.1"/>
    <line x1="6" y1="30" x2="34" y2="30" stroke="#1B1D1E" stroke-width="2"/>
    
    <!-- Screen Content - Charts/Analytics -->
    <line x1="13" y1="20" x2="17" y2="16" stroke="#1B1D1E" stroke-width="1.5"/>
    <line x1="17" y1="16" x2="21" y2="18" stroke="#1B1D1E" stroke-width="1.5"/>
    <line x1="21" y1="18" x2="25" y2="15" stroke="#1B1D1E" stroke-width="1.5"/>
    <line x1="25" y1="15" x2="29" y2="17" stroke="#1B1D1E" stroke-width="1.5"/>
    
    <!-- Data Points -->
    <circle cx="13" cy="20" r="1" fill="#1B1D1E"/>
    <circle cx="17" cy="16" r="1" fill="#1B1D1E"/>
    <circle cx="21" cy="18" r="1" fill="#1B1D1E"/>
    <circle cx="25" cy="15" r="1" fill="#1B1D1E"/>
    <circle cx="29" cy="17" r="1" fill="#1B1D1E"/>
    
    <!-- Cloud/Digital Symbol -->
    <path d="M15 6C15 4 16.5 2 19 2C21.5 2 23 4 23 6C24.5 6 26 7.5 26 9C26 10.5 24.5 12 23 12H16C14.5 12 13 10.5 13 9C13 7.5 14 6 15 6Z" fill="#FBB437"/>
    
    <!-- Gear/Automation -->
    <circle cx="32" cy="8" r="3" fill="none" stroke="#1B1D1E" stroke-width="1"/>
    <circle cx="32" cy="8" r="1.5" fill="#1B1D1E"/>
    <line x1="32" y1="5" x2="32" y2="3" stroke="#1B1D1E" stroke-width="1"/>
    <line x1="32" y1="13" x2="32" y2="11" stroke="#1B1D1E" stroke-width="1"/>
    <line x1="35" y1="8" x2="37" y2="8" stroke="#1B1D1E" stroke-width="1"/>
    <line x1="29" y1="8" x2="27" y2="8" stroke="#1B1D1E" stroke-width="1"/>
  </g>
</svg>