<svg width="192" height="48" viewBox="0 0 192 48" fill="none" xmlns="http://www.w3.org/2000/svg">
<path d="M183.856 14.6148C183.856 15.0566 184.214 15.4148 184.656 15.4148H187.982C188.424 15.4148 188.782 15.7729 188.782 16.2148V19.9637C188.782 20.4056 188.424 20.7637 187.982 20.7637H184.656C184.214 20.7637 183.856 21.122 183.856 21.5637V33.1992C183.856 33.8567 183.96 34.3698 184.165 34.7376C184.37 35.0937 184.653 35.3436 185.016 35.4884C185.39 35.6332 185.822 35.706 186.312 35.706C186.653 35.706 186.994 35.6791 187.334 35.6232C187.342 35.622 187.349 35.6205 187.355 35.6191C187.781 35.536 188.192 35.8095 188.283 36.2324L189.106 40.0535C189.194 40.4596 188.955 40.8644 188.552 40.9644C188.309 41.0247 188.034 41.0885 187.726 41.156C187.069 41.312 186.267 41.4061 185.323 41.4396C183.574 41.5065 182.038 41.2785 180.72 40.7548C179.414 40.2309 178.397 39.417 177.669 38.3138C176.942 37.2106 176.584 35.8178 176.595 34.1354V21.5637C176.595 21.122 176.237 20.7637 175.795 20.7637H174.16C173.718 20.7637 173.36 21.122 173.36 21.5637V40.2888C173.36 40.7306 173.002 41.0889 172.56 41.0889H166.899C166.458 41.0889 166.099 40.7306 166.099 40.2888V16.2148C166.099 15.7729 166.458 15.4148 166.899 15.4148H175.795C176.237 15.4148 176.595 15.0566 176.595 14.6148V10.0628C176.595 9.62099 176.954 9.26282 177.395 9.26282H183.056C183.498 9.26282 183.856 9.62099 183.856 10.0628V14.6148Z" fill="black"/>
<path d="M165.112 12.3859C165.112 12.8277 164.754 13.1859 164.312 13.1859H150.179C149.737 13.1859 149.379 13.5441 149.379 13.9859V20.5418C149.379 20.9837 149.737 21.3418 150.179 21.3418H162.778C163.219 21.3418 163.578 21.7001 163.578 22.1418V26.51C163.578 26.9519 163.219 27.31 162.778 27.31H150.179C149.737 27.31 149.379 27.6682 149.379 28.11V40.6509C149.379 41.0929 149.021 41.4509 148.579 41.4509H142.798C142.356 41.4509 141.998 41.0929 141.998 40.6509V8.0179C141.998 7.57606 142.356 7.2179 142.798 7.2179H164.312C164.754 7.2179 165.112 7.57606 165.112 8.0179V12.3859Z" fill="black"/>
<path d="M169.747 7.53101C170.827 7.53112 171.747 7.88736 172.509 8.60033C173.28 9.30216 173.667 10.1432 173.667 11.1235C173.667 12.115 173.28 12.9674 172.509 13.6804C171.747 14.3822 170.827 14.7343 169.747 14.7344C168.669 14.7344 167.742 14.3822 166.97 13.6804C166.208 12.9673 165.827 12.1151 165.827 11.1235C165.827 10.1432 166.208 9.30216 166.97 8.60033C167.742 7.88752 168.669 7.53101 169.747 7.53101Z" fill="#E3B018"/>
<path fill-rule="evenodd" clip-rule="evenodd" d="M118.243 14.9403C119.97 14.9403 121.578 15.2141 123.066 15.7601C124.566 16.2951 125.873 17.1032 126.987 18.184C128.112 19.265 128.987 20.6248 129.612 22.2629C130.237 23.8898 130.549 25.7955 130.549 27.9797V29.1346C130.549 29.5765 130.191 29.9346 129.749 29.9346H112.736C112.727 29.9346 112.72 29.9423 112.72 29.9515C112.72 31.2218 112.958 32.3195 113.435 33.2443C113.924 34.169 114.612 34.8818 115.498 35.3832C116.384 35.8847 117.435 36.1355 118.651 36.1357C119.457 36.1357 120.198 36.0243 120.868 35.8016C121.538 35.5787 122.111 35.2437 122.588 34.7981C122.928 34.4807 123.211 34.1125 123.436 33.6936C123.601 33.3856 123.918 33.1754 124.266 33.1979L129.47 33.5352C129.958 33.5669 130.306 34.0259 130.158 34.4915C129.771 35.7047 129.151 36.7874 128.299 37.7399C127.254 38.9099 125.902 39.8251 124.243 40.4826C122.595 41.1288 120.691 41.4509 118.532 41.4509C115.839 41.4509 113.52 40.9163 111.577 39.8466C109.646 38.7658 108.157 37.2391 107.112 35.2669C106.066 33.2834 105.543 30.9371 105.543 28.2293C105.543 25.5885 106.066 23.2707 107.112 21.276C108.157 19.2815 109.628 17.7264 111.526 16.6119C113.435 15.4976 115.675 14.9403 118.243 14.9403ZM118.362 20.2571C117.26 20.2571 116.283 20.5067 115.431 21.008C114.59 21.4983 113.93 22.1626 113.452 22.9983C113.148 23.5235 112.94 24.0872 112.826 24.6893C112.741 25.1379 113.111 25.5218 113.568 25.5218H122.913C123.355 25.5218 123.72 25.1621 123.664 24.7237C123.576 24.0189 123.365 23.3768 123.032 22.7976C122.577 22.0064 121.947 21.3879 121.14 20.9421C120.344 20.4851 119.419 20.2571 118.362 20.2571Z" fill="black"/>
<path d="M138.709 40.6509C138.709 41.0929 138.35 41.4509 137.909 41.4509H132.248C131.806 41.4509 131.448 41.0929 131.448 40.6509V8.0179C131.448 7.57606 131.806 7.2179 132.248 7.2179H137.909C138.35 7.2179 138.709 7.57606 138.709 8.0179V40.6509Z" fill="black"/>
<path d="M24.5829 12.3859C24.5829 12.8277 24.2246 13.1859 23.7829 13.1859H9.65C9.20818 13.1859 8.85 13.5441 8.85 13.9859V20.5418C8.85 20.9837 9.20818 21.3418 9.65 21.3418H22.2485C22.6902 21.3418 23.0485 21.7001 23.0485 22.1418V26.51C23.0485 26.9519 22.6902 27.31 22.2485 27.31H9.65C9.20818 27.31 8.85 27.6682 8.85 28.11V40.6509C8.85 41.0929 8.49182 41.4509 8.05 41.4509H2.26875C1.82692 41.4509 1.46875 41.0929 1.46875 40.6509V8.0179C1.46875 7.57606 1.82692 7.2179 2.26875 7.2179H23.7829C24.2246 7.2179 24.5829 7.57606 24.5829 8.0179V12.3859Z" fill="black"/>
<path d="M50.4665 15.4017C50.9085 15.4017 51.2665 15.7599 51.2665 16.2017V28.6502C51.2665 35.7194 45.4481 41.4499 38.379 41.4502C31.3099 41.4502 25.4901 35.7194 25.4901 28.6502V16.2017C25.4901 15.76 25.8483 15.4018 26.2901 15.4017H28.9339C29.2048 15.4017 29.4571 15.5387 29.6048 15.7658L35.5118 24.8565V34.2782C35.5118 34.9277 36.2448 35.3065 36.7744 34.9313L40.9088 31.9971C41.1198 31.847 41.2462 31.6045 41.2462 31.3454V24.8643L47.1534 15.7661C47.3009 15.5389 47.5536 15.4017 47.8245 15.4017H50.4665Z" fill="#E3B018"/>
<path d="M65.0637 15.4017C72.1328 15.4018 77.9512 21.1326 77.9512 28.2018V40.6502C77.9512 41.0917 77.5942 41.4498 77.1528 41.4502H71.4808C71.039 41.4502 70.6808 41.092 70.6808 40.6502V28.2909C70.6808 25.1886 68.1658 22.6737 65.0637 22.6736C61.9614 22.6736 59.4466 25.1886 59.4466 28.2909V40.6502C59.4466 41.092 59.0883 41.4502 58.6466 41.4502H52.9746C52.533 41.4499 52.1746 41.0918 52.1746 40.6502V28.2018C52.1746 21.1325 57.9944 15.4017 65.0637 15.4017Z" fill="black"/>
<path d="M91.7478 15.4017C98.8169 15.4018 104.635 21.1326 104.635 28.2018V40.6502C104.635 41.0917 104.278 41.4498 103.837 41.4502H98.1649C97.7232 41.4502 97.3649 41.092 97.3649 40.6502V28.2909C97.3649 25.1886 94.8499 22.6737 91.7478 22.6736C88.6456 22.6736 86.1307 25.1886 86.1307 28.2909V40.6502C86.1307 41.092 85.7725 41.4502 85.3307 41.4502H79.6587C79.2171 41.4499 78.8587 41.0918 78.8587 40.6502V28.2018C78.8587 21.1325 84.6785 15.4017 91.7478 15.4017Z" fill="black"/>
</svg>
