<svg xmlns="http://www.w3.org/2000/svg" version="1.1" xmlns:xlink="http://www.w3.org/1999/xlink" width="120" height="120"><svg width="120" height="120" viewBox="0 0 120 120" fill="none" xmlns="http://www.w3.org/2000/svg">
<path d="M111.328 4.28577C113.222 4.28577 114.756 5.8208 114.756 7.7144V61.065C114.756 91.3613 89.8203 115.921 59.5241 115.922C29.2279 115.922 4.28571 91.3613 4.28571 61.065V7.7144C4.28571 5.82108 5.82102 4.28625 7.71428 4.28577H19.045C20.2059 4.28577 21.2873 4.87294 21.9202 5.84618L47.2361 44.8061V85.185C47.2361 87.9684 50.3774 89.5921 52.6471 87.9841L70.3659 75.4088C71.2704 74.7656 71.8121 73.7261 71.8121 72.6159V44.8397L97.1287 5.84728C97.7609 4.87343 98.8437 4.28577 100.005 4.28577H111.328Z" fill="#E3B018"></path>
</svg><style>@media (prefers-color-scheme: light) { :root { filter: none; } }
@media (prefers-color-scheme: dark) { :root { filter: none; } }
</style></svg>