<svg id="Capa_1" enable-background="new 0 0 512 512" height="512" viewBox="0 0 512 512" width="512" xmlns="http://www.w3.org/2000/svg" xmlns:xlink="http://www.w3.org/1999/xlink"><linearGradient id="SVGID_1_" gradientUnits="userSpaceOnUse" x1="225.975" x2="225.975" y1="512" y2="30"><stop offset="0" stop-color="#fd5900"/><stop offset="1" stop-color="#ffde00"/></linearGradient><linearGradient id="SVGID_2_" gradientUnits="userSpaceOnUse" x1="256" x2="256" y1="420" y2="0"><stop offset="0" stop-color="#ffe59a"/><stop offset="1" stop-color="#ffffd5"/></linearGradient><g><g><g><path d="m375.975 120v-45c0-8.401-6.599-15-15-15h-15l-240-30h-60v437c0 24.898 20.098 45 45 45h270c8.401 0 15-6.601 15-15v-257l30-60z" fill="url(#SVGID_1_)"/></g></g><g><g><path d="m438.974 180 24.598-36.601c3.003-4.799 3.303-10.499.601-15.599-2.699-4.801-7.8-7.8-13.198-7.8h-75v120h75c5.398 0 10.499-3.001 13.198-7.8 2.703-5.1 2.402-10.799-.601-15.601zm-107.999-180h-255c-17.382 0-30 14.327-30 30 0 16.5 13.499 30 30 30h270v-45c0-8.284-6.716-15-15-15zm-30 390h-180c-8.291 0-15 6.709-15 15s6.709 15 15 15h180c8.291 0 15-6.709 15-15s-6.709-15-15-15zm0-270h-180c-8.401 0-15 6.599-15 15v210c0 8.399 6.599 15 15 15h180c8.401 0 15-6.601 15-15v-210c0-8.401-6.6-15-15-15zm-60 60c8.401 0 15 6.599 15 15 0 8.399-6.599 15-15 15s-15-6.601-15-15c0-8.401 6.599-15 15-15zm-60 120c-8.401 0-15-6.601-15-15 0-8.401 6.599-15 15-15s15 6.599 15 15c0 8.399-6.6 15-15 15zm68.4-2.4c-8.252 4.579-16.499 2.109-20.999-4.201l-60-90c-4.504-6.899-2.703-16.199 4.197-21 6.899-4.499 16.201-2.699 20.999 4.201l60 90c4.505 6.9 2.703 16.2-4.197 21z" fill="url(#SVGID_2_)"/></g></g></g></svg>