<svg id="Capa_1" enable-background="new 0 0 512 512" viewBox="0 0 512 512" xmlns="http://www.w3.org/2000/svg" xmlns:xlink="http://www.w3.org/1999/xlink"><linearGradient id="SVGID_1_" gradientUnits="userSpaceOnUse" x1="241" x2="241" y1="472" y2="0"><stop offset="0" stop-color="#ffbef9"/><stop offset="1" stop-color="#fff1ff"/></linearGradient><linearGradient id="SVGID_00000122701076901604632860000004104122425876702893_" gradientUnits="userSpaceOnUse" x1="286" x2="286" y1="512" y2="75"><stop offset="0" stop-color="#a93aff"/><stop offset="1" stop-color="#ff81ff"/></linearGradient><g><path d="m242 467c0 1.008.034 2.008.099 3h-227.099c-8.284 0-15-6.716-15-15v-440c0-8.284 6.716-15 15-15h320c8.284 0 15 6.716 15 15v147h-63c-24.813 0-45 20.187-45 45zm225-275h-180c-8.271 0-15 6.729-15 15v65h210v-65c0-8.271-6.729-15-15-15zm-160 280c8.284 0 15-6.716 15-15s-6.716-15-15-15-15 6.716-15 15 6.716 15 15 15zm70 0c8.284 0 15-6.716 15-15s-6.716-15-15-15-15 6.716-15 15 6.716 15 15 15zm70 0c8.284 0 15-6.716 15-15s-6.716-15-15-15-15 6.716-15 15 6.716 15 15 15zm-140-65c8.284 0 15-6.716 15-15s-6.716-15-15-15-15 6.716-15 15 6.716 15 15 15zm70 0c8.284 0 15-6.716 15-15s-6.716-15-15-15-15 6.716-15 15 6.716 15 15 15zm70 0c8.284 0 15-6.716 15-15s-6.716-15-15-15-15 6.716-15 15 6.716 15 15 15zm-140-65c8.284 0 15-6.716 15-15s-6.716-15-15-15-15 6.716-15 15 6.716 15 15 15zm70 0c8.284 0 15-6.716 15-15s-6.716-15-15-15-15 6.716-15 15 6.716 15 15 15zm70 0c8.284 0 15-6.716 15-15s-6.716-15-15-15-15 6.716-15 15 6.716 15 15 15z" fill="url(#SVGID_1_)"/><path d="m275 105h-200c-8.284 0-15-6.716-15-15s6.716-15 15-15h200c8.284 0 15 6.716 15 15s-6.716 15-15 15zm-45 45c0-8.284-6.716-15-15-15h-140c-8.284 0-15 6.716-15 15s6.716 15 15 15h140c8.284 0 15-6.716 15-15zm-72.125 140.141c-11.437-4.042-24.065-8.91-31.014-14.361-1.614-1.266-2.289-4.553-1.64-7.993.344-1.826 1.942-7.927 8.054-9.769 12.631-3.804 20.66 2.573 21.533 3.313-.146-.124-.218-.195-.218-.195l.005-.005c2.675 2.469 6.247 3.979 10.165 3.979 8.271 0 15-6.729 15-15 0-4.353-1.864-8.279-4.836-11.021l.005-.005c-4.013-3.701-11.268-8.227-20.717-10.605v-8.479c0-8.284-6.716-15-15-15s-15 6.716-15 15v9.42c-14.622 4.574-25.513 17.108-28.472 32.812-2.761 14.652 2.069 28.889 12.606 37.154 10.336 8.107 25.107 13.942 39.531 19.041 11.008 3.891 11.335 12.307 10.55 16.977-1.32 7.854-7.928 16.34-19.315 16.417-12.058.075-15.494-.463-24.581-6.407-6.934-4.535-16.229-2.591-20.765 4.341-4.535 6.933-2.591 16.229 4.341 20.764 9.925 6.493 17.395 9.382 26.104 10.567v8.914c0 8.284 6.716 15 15 15s15-6.716 15-15v-10.481c18.929-5.975 31.031-22.672 33.8-39.143 3.757-22.348-8.354-42.536-30.136-50.235zm354.125-83.141v260c0 24.813-20.187 45-45 45h-180c-24.813 0-45-20.187-45-45v-260c0-24.813 20.187-45 45-45h180c24.813 0 45 20.187 45 45zm-190 250c0-8.284-6.716-15-15-15s-15 6.716-15 15 6.716 15 15 15 15-6.716 15-15zm0-65c0-8.284-6.716-15-15-15s-15 6.716-15 15 6.716 15 15 15 15-6.716 15-15zm0-65c0-8.284-6.716-15-15-15s-15 6.716-15 15 6.716 15 15 15 15-6.716 15-15zm70 130c0-8.284-6.716-15-15-15s-15 6.716-15 15 6.716 15 15 15 15-6.716 15-15zm0-65c0-8.284-6.716-15-15-15s-15 6.716-15 15 6.716 15 15 15 15-6.716 15-15zm0-65c0-8.284-6.716-15-15-15s-15 6.716-15 15 6.716 15 15 15 15-6.716 15-15zm70 130c0-8.284-6.716-15-15-15s-15 6.716-15 15 6.716 15 15 15 15-6.716 15-15zm0-65c0-8.284-6.716-15-15-15s-15 6.716-15 15 6.716 15 15 15 15-6.716 15-15zm0-65c0-8.284-6.716-15-15-15s-15 6.716-15 15 6.716 15 15 15 15-6.716 15-15zm20-120c0-8.271-6.729-15-15-15h-180c-8.271 0-15 6.729-15 15v65h210z" fill="url(#SVGID_00000122701076901604632860000004104122425876702893_)"/></g><g/><g/><g/><g/><g/><g/><g/><g/><g/><g/><g/><g/><g/><g/><g/></svg>