<svg id="Capa_1" enable-background="new 0 0 512 512" height="512" viewBox="0 0 512 512" width="512" xmlns="http://www.w3.org/2000/svg" xmlns:xlink="http://www.w3.org/1999/xlink"><linearGradient id="SVGID_1_" gradientUnits="userSpaceOnUse" x1="256" x2="256" y1="512" y2="0"><stop offset="0" stop-color="#fd3a84"/><stop offset="1" stop-color="#ffa68d"/></linearGradient><linearGradient id="SVGID_2_" gradientUnits="userSpaceOnUse" x1="256.615" x2="256.615" y1="391" y2="121"><stop offset="0" stop-color="#ffc2cc"/><stop offset="1" stop-color="#fff2f4"/></linearGradient><g><path d="m211 512c-8.822 0-16-7.178-16-16v-22.651c-17.16-4.858-33.782-11.808-49.427-20.664l-16.161 16.16c-3.022 3.023-7.04 4.688-11.312 4.688s-8.29-1.665-11.312-4.688l-63.633-63.647c-3.023-3.022-4.688-7.04-4.688-11.312s1.665-8.29 4.688-11.312l16.338-16.338c-8.754-15.598-15.616-32.155-20.405-49.236h-23.088c-8.822 0-16-7.178-16-16v-90c0-8.822 7.178-16 16-16h23.088c4.789-17.081 11.651-33.638 20.404-49.235l-16.338-16.338c-3.023-3.022-4.688-7.04-4.688-11.312s1.665-8.29 4.688-11.312l63.633-63.647c2.867-2.867 6.99-4.512 11.312-4.512s8.445 1.645 11.312 4.512l16.161 16.16c15.646-8.858 32.268-15.807 49.428-20.665v-22.651c0-8.822 7.178-16 16-16h90c8.822 0 16 7.178 16 16v22.266c17.252 4.784 34.022 11.716 49.864 20.611l15.694-15.722c2.868-2.868 6.991-4.512 11.313-4.512s8.445 1.645 11.312 4.512l63.633 63.647c3.023 3.022 4.688 7.04 4.688 11.312s-1.665 8.29-4.688 11.312l-15.516 15.53c8.96 15.805 15.979 32.634 20.871 50.043h21.829c8.822 0 16 7.178 16 16v90c0 8.822-7.178 16-16 16h-21.829c-4.891 17.423-11.91 34.252-20.871 50.043l15.516 15.53c3.022 3.022 4.687 7.04 4.687 11.312s-1.665 8.29-4.688 11.312l-63.633 63.647c-3.022 3.023-7.04 4.688-11.312 4.688s-8.29-1.665-11.312-4.688l-15.694-15.723c-15.842 8.895-32.612 15.827-49.864 20.611v22.269c0 8.822-7.178 16-16 16z" fill="url(#SVGID_1_)"/><g><g><path d="m391.615 271c0-21.943-12.012-41.792-30.498-52.251 3.148-24.896-9.227-48.316-30.088-60.059-3.516-21.357-22.09-37.69-44.414-37.69-11.567 0-22.02 4.508-30 11.704-7.98-7.196-18.433-11.704-30-11.704-22.324 0-40.898 16.333-44.414 37.69-20.799 11.708-33.245 35.092-30.088 60.059-18.486 10.459-30.498 30.308-30.498 52.251s12.012 41.792 30.498 52.251c-4.615 36.503 23.854 67.749 59.502 67.749 18.001 0 33.992-8.135 45-20.737 11.008 12.602 26.999 20.737 45 20.737 35.639 0 64.119-31.235 59.502-67.749 18.487-10.459 30.498-30.308 30.498-52.251zm-150-30h-15c-8.291 0-15 6.709-15 15s6.709 15 15 15h15v60c0 16.538-13.447 30-30 30-21.403 0-35.655-21.782-27.891-41.03 1.582-3.97 1.377-8.423-.527-12.246s-5.361-6.665-9.492-7.778c-13.008-3.545-22.09-15.439-22.09-28.945s9.082-25.4 22.09-28.945c4.131-1.113 7.588-3.955 9.492-7.778s2.109-8.276.527-12.246c-6.209-15.392 1.624-33.623 17.959-39.36 6.562-2.3 10.664-9.756 9.932-16.67 0-8.276 6.738-15 15-15s15 6.724 15 15zm97.91 58.945c-4.131 1.113-7.588 3.955-9.492 7.778s-2.109 8.276-.527 12.246c7.785 19.301-6.533 41.03-27.891 41.03-16.553 0-30-13.462-30-30v-60h15c8.291 0 15-6.709 15-15s-6.709-15-15-15h-15v-75c0-8.276 6.738-15 15-15s15 6.724 14.971 15.952c-.732 6.914 3.398 13.418 9.961 15.718 16.309 5.728 24.176 23.947 17.959 39.36-1.582 3.97-1.377 8.423.527 12.246s5.361 6.665 9.492 7.778c13.008 3.545 22.09 15.439 22.09 28.945s-9.082 25.402-22.09 28.947z" fill="url(#SVGID_2_)"/></g></g></g></svg>