<svg id="Capa_1" enable-background="new 0 0 512 512" height="512" viewBox="0 0 512 512" width="512" xmlns="http://www.w3.org/2000/svg" xmlns:xlink="http://www.w3.org/1999/xlink"><linearGradient id="SVGID_1_" gradientUnits="userSpaceOnUse" x1="233.5" x2="233.5" y1="406" y2="31"><stop offset="0" stop-color="#5558ff"/><stop offset="1" stop-color="#00c0ff"/></linearGradient><linearGradient id="SVGID_2_" gradientUnits="userSpaceOnUse" x1="256" x2="256" y1="481" y2="91"><stop offset="0" stop-color="#addcff"/><stop offset=".5028" stop-color="#eaf6ff"/><stop offset="1" stop-color="#eaf6ff"/></linearGradient><g><g><g><path d="m431.6 305.5c4.5 1.8 9.9 1.2 13.8-1.8 4.2-2.7 6.6-7.2 6.6-12.3v-101.7l-452 .3v156c0 24.9 20.1 45 45 45h272c8.4 0 15-6.6 15-15 0-41.4 33.6-75 75-75 8.7 0 17.1 1.5 24.6 4.5zm-250.6-214.5v-30h90v30l14 24 16-24v-45c0-8.4-6.6-15-15-15h-120c-8.4 0-15 6.6-15 15v45l9 35zm256 255c0-16.816-13.184-30-30-30s-30 13.184-30 30v30c0 16.816 13.184 30 30 30h30c16.816 0 30-13.184 30-30s-13.184-30-30-30z" fill="url(#SVGID_1_)"/></g></g><g><g><path d="m452 136c0-24.9-20.1-45-45-45h-362c-24.9 0-45 20.1-45 45v54c49.3 29.75 125.7 48.58 211 50.6v15.4c0 8.29 6.71 15 15 15s15-6.71 15-15v-15.4c85.57-2.05 161.97-21.14 211-50.9zm-45 135c-57.9 0-105 47.1-105 105s47.1 105 105 105 105-47.1 105-105-47.1-105-105-105zm30 120h-30c-8.401 0-15-6.601-15-15v-30c0-8.401 6.599-15 15-15s15 6.599 15 15v15h15c8.401 0 15 6.599 15 15 0 8.399-6.599 15-15 15z" fill="url(#SVGID_2_)"/></g></g></g></svg>